<svg width="25" height="25" viewBox="0 0 25 25" fill="none" xmlns="http://www.w3.org/2000/svg">
<path d="M20.8333 8.33366H4.16659V6.25033H20.8333M20.8333 18.7503H4.16659V12.5003H20.8333M20.8333 4.16699H4.16659C3.01034 4.16699 2.08325 5.09408 2.08325 6.25033V18.7503C2.08325 19.3029 2.30275 19.8328 2.69345 20.2235C3.08415 20.6142 3.61405 20.8337 4.16659 20.8337H20.8333C21.3858 20.8337 21.9157 20.6142 22.3064 20.2235C22.6971 19.8328 22.9166 19.3029 22.9166 18.7503V6.25033C22.9166 5.69779 22.6971 5.16789 22.3064 4.77719C21.9157 4.38649 21.3858 4.16699 20.8333 4.16699Z" fill="#33691E"/>
</svg>
