<svg width="36" height="32" viewBox="0 0 36 32" fill="none" xmlns="http://www.w3.org/2000/svg">
<rect width="36" height="32" rx="5" fill="#33691E"/>
<g clip-path="url(#clip0_537_389)">
<path d="M11.3753 10.75V23.4167H25.6253V25H11.3753C10.9554 25 10.5527 24.8332 10.2557 24.5363C9.95881 24.2394 9.79199 23.8366 9.79199 23.4167V10.75H11.3753ZM21.667 13.125H26.0212L21.667 8.77087V13.125ZM14.542 7.58337H22.4587L27.2087 12.3334V20.25C27.2087 20.67 27.0418 21.0727 26.7449 21.3696C26.448 21.6666 26.0452 21.8334 25.6253 21.8334H14.542C14.1221 21.8334 13.7193 21.6666 13.4224 21.3696C13.1255 21.0727 12.9587 20.67 12.9587 20.25V9.16671C12.9587 8.74678 13.1255 8.34405 13.4224 8.04712C13.7193 7.75019 14.1221 7.58337 14.542 7.58337ZM14.542 9.16671V20.25H25.6253V14.7084H20.0837V9.16671H14.542Z" fill="white"/>
</g>
<defs>
<clipPath id="clip0_537_389">
<rect width="19" height="19" fill="white" transform="translate(9 6)"/>
</clipPath>
</defs>
</svg>
