<svg width="25" height="25" viewBox="0 0 25 25" fill="none" xmlns="http://www.w3.org/2000/svg">
<path d="M9 17.675C8.18333 17.675 7.49305 17.3971 6.92917 16.8412C6.36528 16.2854 6.08333 15.605 6.08333 14.8C6.08333 13.995 6.36528 13.3146 6.92917 12.7587C7.49305 12.2029 8.18333 11.925 9 11.925C9.81667 11.925 10.5069 12.2029 11.0708 12.7587C11.6347 13.3146 11.9167 13.995 11.9167 14.8C11.9167 15.605 11.6347 16.2854 11.0708 16.8412C10.5069 17.3971 9.81667 17.675 9 17.675ZM4.33333 24C3.69167 24 3.14256 23.775 2.686 23.3249C2.22944 22.8749 2.00078 22.3333 2 21.7V5.6C2 4.9675 2.22867 4.42623 2.686 3.9762C3.14333 3.52617 3.69244 3.30077 4.33333 3.3H5.5V1H7.83333V3.3H17.1667V1H19.5V3.3H20.6667C21.3083 3.3 21.8578 3.5254 22.3152 3.9762C22.7725 4.427 23.0008 4.96827 23 5.6V21.7C23 22.3325 22.7717 22.8741 22.3152 23.3249C21.8586 23.7757 21.3091 24.0008 20.6667 24H4.33333ZM4.33333 21.7H20.6667V10.2H4.33333V21.7ZM4.33333 7.9H20.6667V5.6H4.33333V7.9Z" fill="#33691E"/>
</svg>
