<svg width="25" height="25" viewBox="0 0 25 25" fill="none" xmlns="http://www.w3.org/2000/svg">
<path d="M17.25 20C17.3767 20 17.4875 19.95 17.5825 19.85C17.6775 19.75 17.725 19.6333 17.725 19.5V17.5H19.625C19.7517 17.5 19.8625 17.45 19.9575 17.35C20.0525 17.25 20.1 17.1333 20.1 17C20.1 16.8667 20.0525 16.75 19.9575 16.65C19.8625 16.55 19.7517 16.5 19.625 16.5H17.725V14.5C17.725 14.3667 17.6775 14.25 17.5825 14.15C17.4875 14.05 17.3767 14 17.25 14C17.1233 14 17.0125 14.05 16.9175 14.15C16.8225 14.25 16.775 14.3667 16.775 14.5V16.5H14.875C14.7483 16.5 14.6375 16.55 14.5425 16.65C14.4475 16.75 14.4 16.8667 14.4 17C14.4 17.1333 14.4475 17.25 14.5425 17.35C14.6375 17.45 14.7483 17.5 14.875 17.5H16.775V19.5C16.775 19.6333 16.8225 19.75 16.9175 19.85C17.0125 19.95 17.1233 20 17.25 20ZM17.25 22C15.9358 22 14.8158 21.5123 13.8898 20.537C12.9639 19.5617 12.5006 18.3827 12.5 17C12.4994 15.6173 12.9626 14.4383 13.8898 13.463C14.817 12.4877 15.9371 12 17.25 12C18.5629 12 19.6833 12.4877 20.6111 13.463C21.5389 14.4383 22.0019 15.6173 22 17C21.9981 18.3827 21.5348 19.562 20.6101 20.538C19.6855 21.514 18.5654 22.0013 17.25 22ZM9.65 6.00001C9.38083 6.00001 9.15537 5.90401 8.9736 5.71201C8.79183 5.52001 8.70063 5.28267 8.7 5.00001C8.69937 4.71734 8.79057 4.48001 8.9736 4.28801C9.15663 4.09601 9.3821 4.00001 9.65 4.00001H19.15C19.4192 4.00001 19.6449 4.09601 19.8273 4.28801C20.0097 4.48001 20.1006 4.71734 20.1 5.00001C20.0994 5.28267 20.0082 5.52034 19.8264 5.71301C19.6446 5.90567 19.4192 6.00134 19.15 6.00001H9.65ZM4.9 19C4.3775 19 3.93037 18.8043 3.5586 18.413C3.18683 18.0217 3.00063 17.5507 3 17C2.99937 16.4493 3.18557 15.9787 3.5586 15.588C3.93163 15.1973 4.37877 15.0013 4.9 15C5.42123 14.9987 5.86868 15.1947 6.24235 15.588C6.61602 15.9813 6.8019 16.452 6.8 17C6.7981 17.548 6.61222 18.019 6.24235 18.413C5.87248 18.807 5.42503 19.0027 4.9 19ZM4.9 13C4.3775 13 3.93037 12.8043 3.5586 12.413C3.18683 12.0217 3.00063 11.5507 3 11C2.99937 10.4493 3.18557 9.97867 3.5586 9.588C3.93163 9.19734 4.37877 9.00134 4.9 9C5.42123 8.99867 5.86868 9.19467 6.24235 9.588C6.61602 9.98134 6.8019 10.452 6.8 11C6.7981 11.548 6.61222 12.019 6.24235 12.413C5.87248 12.807 5.42503 13.0027 4.9 13ZM4.9 7C4.3775 7 3.93037 6.80434 3.5586 6.41301C3.18683 6.02167 3.00063 5.55067 3 5.00001C2.99937 4.44934 3.18557 3.97867 3.5586 3.58801C3.93163 3.19734 4.37877 3.00134 4.9 3.00001C5.42123 2.99867 5.86868 3.19467 6.24235 3.58801C6.61602 3.98134 6.8019 4.45201 6.8 5.00001C6.7981 5.54801 6.61222 6.01901 6.24235 6.41301C5.87248 6.807 5.42503 7.00267 4.9 7ZM9.65 12C9.38083 12 9.15537 11.904 8.9736 11.712C8.79183 11.52 8.70063 11.2827 8.7 11C8.69937 10.7173 8.79057 10.48 8.9736 10.288C9.15663 10.096 9.3821 10 9.65 10H11.55C11.8192 10 12.0449 10.096 12.2273 10.288C12.4097 10.48 12.5006 10.7173 12.5 11C12.4994 11.2827 12.4082 11.5203 12.2264 11.713C12.0446 11.9057 11.8192 12.0013 11.55 12H9.65ZM9.65 18C9.38083 18 9.15537 17.904 8.9736 17.712C8.79183 17.52 8.70063 17.2827 8.7 17C8.69937 16.7173 8.79057 16.48 8.9736 16.288C9.15663 16.096 9.3821 16 9.65 16C9.9179 16 10.1437 16.096 10.3273 16.288C10.511 16.48 10.6019 16.7173 10.6 17C10.5981 17.2827 10.5069 17.5203 10.3264 17.713C10.1459 17.9057 9.92043 18.0013 9.65 18Z" fill="#33691E"/>
</svg>
