<svg width="44" height="44" viewBox="0 0 44 44" fill="none" xmlns="http://www.w3.org/2000/svg">
<ellipse cx="22.246" cy="21.6945" rx="22.246" ry="21.6945" fill="#33691E"/>
<path d="M22 33.25C19.375 33.25 17.0521 32.4533 15.0312 30.86C13.0104 29.2667 11.6979 27.23 11.0938 24.75C11.0104 24.4375 11.0729 24.1512 11.2812 23.8912C11.4896 23.6312 11.7708 23.48 12.125 23.4375C12.4583 23.3958 12.7604 23.4583 13.0312 23.625C13.3021 23.7917 13.4896 24.0417 13.5938 24.375C14.0938 26.25 15.125 27.7812 16.6875 28.9688C18.25 30.1562 20.0208 30.75 22 30.75C24.4375 30.75 26.5054 29.9012 28.2037 28.2037C29.9021 26.5062 30.7508 24.4383 30.75 22C30.7492 19.5617 29.9004 17.4942 28.2037 15.7975C26.5071 14.1008 24.4392 13.2517 22 13.25C20.5625 13.25 19.2188 13.5833 17.9687 14.25C16.7187 14.9167 15.6667 15.8333 14.8125 17H17C17.3542 17 17.6513 17.12 17.8913 17.36C18.1313 17.6 18.2508 17.8967 18.25 18.25C18.2492 18.6033 18.1292 18.9004 17.89 19.1412C17.6508 19.3821 17.3542 19.5017 17 19.5H12C11.6458 19.5 11.3492 19.38 11.11 19.14C10.8708 18.9 10.7508 18.6033 10.75 18.25V13.25C10.75 12.8958 10.87 12.5992 11.11 12.36C11.35 12.1208 11.6467 12.0008 12 12C12.3533 11.9992 12.6504 12.1192 12.8912 12.36C13.1321 12.6008 13.2517 12.8975 13.25 13.25V14.9375C14.3125 13.6042 15.6096 12.5729 17.1412 11.8437C18.6729 11.1146 20.2925 10.75 22 10.75C23.5625 10.75 25.0262 11.0471 26.3912 11.6413C27.7562 12.2354 28.9438 13.0371 29.9538 14.0462C30.9638 15.0554 31.7658 16.2429 32.36 17.6087C32.9542 18.9746 33.2508 20.4383 33.25 22C33.2492 23.5617 32.9525 25.0254 32.36 26.3912C31.7675 27.7571 30.9654 28.9446 29.9538 29.9537C28.9421 30.9629 27.7546 31.765 26.3912 32.36C25.0279 32.955 23.5642 33.2517 22 33.25ZM23.25 21.5L26.375 24.625C26.6042 24.8542 26.7188 25.1458 26.7188 25.5C26.7188 25.8542 26.6042 26.1458 26.375 26.375C26.1458 26.6042 25.8542 26.7187 25.5 26.7187C25.1458 26.7187 24.8542 26.6042 24.625 26.375L21.125 22.875C21 22.75 20.9062 22.6096 20.8438 22.4537C20.7812 22.2979 20.75 22.1362 20.75 21.9687V17C20.75 16.6458 20.87 16.3492 21.11 16.11C21.35 15.8708 21.6467 15.7508 22 15.75C22.3533 15.7492 22.6504 15.8692 22.8913 16.11C23.1321 16.3508 23.2517 16.6475 23.25 17V21.5Z" fill="white"/>
</svg>
