<svg width="40" height="40" viewBox="0 0 40 40" fill="none" xmlns="http://www.w3.org/2000/svg">
<path d="M20 35C16.5 35 13.4028 33.9378 10.7083 31.8133C8.01389 29.6889 6.26389 26.9733 5.45833 23.6667C5.34722 23.25 5.43056 22.8683 5.70833 22.5217C5.98611 22.175 6.36111 21.9733 6.83333 21.9167C7.27778 21.8611 7.68056 21.9444 8.04167 22.1667C8.40278 22.3889 8.65278 22.7222 8.79167 23.1667C9.45833 25.6667 10.8333 27.7083 12.9167 29.2917C15 30.875 17.3611 31.6667 20 31.6667C23.25 31.6667 26.0072 30.535 28.2717 28.2717C30.5361 26.0083 31.6678 23.2511 31.6667 20C31.6656 16.7489 30.5339 13.9922 28.2717 11.73C26.0094 9.46778 23.2522 8.33556 20 8.33333C18.0833 8.33333 16.2917 8.77778 14.625 9.66667C12.9583 10.5556 11.5556 11.7778 10.4167 13.3333H13.3333C13.8056 13.3333 14.2017 13.4933 14.5217 13.8133C14.8417 14.1333 15.0011 14.5289 15 15C14.9989 15.4711 14.8389 15.8672 14.52 16.1883C14.2011 16.5094 13.8056 16.6689 13.3333 16.6667H6.66667C6.19444 16.6667 5.79889 16.5067 5.48 16.1867C5.16111 15.8667 5.00111 15.4711 5 15V8.33333C5 7.86111 5.16 7.46556 5.48 7.14667C5.8 6.82778 6.19556 6.66778 6.66667 6.66667C7.13778 6.66556 7.53389 6.82556 7.855 7.14667C8.17611 7.46778 8.33556 7.86333 8.33333 8.33333V10.5833C9.75 8.80555 11.4794 7.43056 13.5217 6.45833C15.5639 5.48611 17.7233 5 20 5C22.0833 5 24.035 5.39611 25.855 6.18833C27.675 6.98056 29.2583 8.04944 30.605 9.395C31.9517 10.7406 33.0211 12.3239 33.8133 14.145C34.6056 15.9661 35.0011 17.9178 35 20C34.9989 22.0822 34.6033 24.0339 33.8133 25.855C33.0233 27.6761 31.9539 29.2594 30.605 30.605C29.2561 31.9506 27.6728 33.02 25.855 33.8133C24.0372 34.6067 22.0856 35.0022 20 35ZM21.6667 19.3333L25.8333 23.5C26.1389 23.8056 26.2917 24.1944 26.2917 24.6667C26.2917 25.1389 26.1389 25.5278 25.8333 25.8333C25.5278 26.1389 25.1389 26.2917 24.6667 26.2917C24.1944 26.2917 23.8056 26.1389 23.5 25.8333L18.8333 21.1667C18.6667 21 18.5417 20.8128 18.4583 20.605C18.375 20.3972 18.3333 20.1817 18.3333 19.9583V13.3333C18.3333 12.8611 18.4933 12.4656 18.8133 12.1467C19.1333 11.8278 19.5289 11.6678 20 11.6667C20.4711 11.6656 20.8672 11.8256 21.1883 12.1467C21.5094 12.4678 21.6689 12.8633 21.6667 13.3333V19.3333Z" fill="black"/>
</svg>
