<svg width="18" height="24" viewBox="0 0 18 24" fill="none" xmlns="http://www.w3.org/2000/svg">
<g clip-path="url(#clip0_257_1652)">
<path d="M17.9937 10.9844C17.9937 11.5469 17.525 11.9875 16.9937 11.9875H15.9937L16.0156 16.9937C16.0156 17.0781 16.0094 17.1625 16 17.2469V17.75C16 18.4406 15.4406 19 14.75 19H14.25C14.2156 19 14.1813 19 14.1469 18.9969C14.1031 19 14.0594 19 14.0156 19H13H12.25C11.5594 19 11 18.4406 11 17.75V17V15C11 14.4469 10.5531 14 10 14H8C7.44687 14 7 14.4469 7 15V17V17.75C7 18.4406 6.44063 19 5.75 19H5H4.00313C3.95625 19 3.90937 18.9969 3.8625 18.9937C3.825 18.9969 3.7875 19 3.75 19H3.25C2.55937 19 2 18.4406 2 17.75V14.25C2 14.2219 2 14.1906 2.00312 14.1625V11.9875H1C0.4375 11.9875 0 11.55 0 10.9844C0 10.7031 0.09375 10.4531 0.3125 10.2344L8.325 3.25C8.54375 3.03125 8.79375 3 9.0125 3C9.23125 3 9.48125 3.0625 9.66875 3.21875L17.65 10.2344C17.9 10.4531 18.025 10.7031 17.9937 10.9844Z" fill="#9CA3AF"/>
</g>
<defs>
<clipPath id="clip0_257_1652">
<rect width="18" height="16" fill="white" transform="translate(0 3)"/>
</clipPath>
</defs>
</svg>
