<svg width="36" height="32" viewBox="0 0 36 32" fill="none" xmlns="http://www.w3.org/2000/svg">
<rect width="36" height="32" rx="5" fill="#33691E"/>
<path d="M27.8101 16H25.6435C25.3562 16 25.0806 16.0966 24.8774 16.2685C24.6743 16.4404 24.5601 16.6736 24.5601 16.9167C24.5601 17.1598 24.6743 17.393 24.8774 17.5649C25.0806 17.7368 25.3562 17.8334 25.6435 17.8334V19.6667H24.3605C24.489 19.3732 24.5565 19.063 24.5601 18.75C24.5603 18.1447 24.3242 17.5562 23.8887 17.0759C23.4532 16.5956 22.8426 16.2503 22.1515 16.0937C21.4604 15.937 20.7275 15.9777 20.0666 16.2095C19.4056 16.4413 18.8536 16.8511 18.496 17.3755C18.4242 17.4798 18.3774 17.5951 18.3584 17.7147C18.3394 17.8343 18.3485 17.956 18.3852 18.0726C18.4219 18.1893 18.4854 18.2987 18.5722 18.3945C18.659 18.4903 18.7673 18.5706 18.8909 18.631C19.0144 18.6913 19.1509 18.7303 19.2924 18.7459C19.4338 18.7614 19.5775 18.7532 19.7152 18.7216C19.8529 18.6901 19.9819 18.6358 20.0948 18.5619C20.2076 18.4881 20.3021 18.3961 20.3728 18.2912C20.468 18.1521 20.6046 18.0366 20.7691 17.9563C20.9336 17.8759 21.1202 17.8335 21.3101 17.8334C21.5975 17.8334 21.873 17.93 22.0762 18.1019C22.2793 18.2738 22.3935 18.5069 22.3935 18.75C22.3935 18.9932 22.2793 19.2263 22.0762 19.3982C21.873 19.5701 21.5975 19.6667 21.3101 19.6667C21.0228 19.6667 20.7473 19.7633 20.5441 19.9352C20.3409 20.1071 20.2268 20.3403 20.2268 20.5834C20.2268 20.8265 20.3409 21.0596 20.5441 21.2316C20.7473 21.4035 21.0228 21.5 21.3101 21.5C21.5975 21.5 21.873 21.5966 22.0762 21.7685C22.2793 21.9404 22.3935 22.1736 22.3935 22.4167C22.3935 22.6598 22.2793 22.893 22.0762 23.0649C21.873 23.2368 21.5975 23.3334 21.3101 23.3334C21.1202 23.3332 20.9336 23.2908 20.7691 23.2105C20.6046 23.1301 20.468 23.0146 20.3728 22.8755C20.3021 22.7707 20.2076 22.6787 20.0948 22.6048C19.9819 22.5309 19.8529 22.4767 19.7152 22.4451C19.5776 22.4135 19.4338 22.4053 19.2924 22.4209C19.1509 22.4364 19.0145 22.4755 18.8909 22.5358C18.7673 22.5961 18.659 22.6764 18.5722 22.7723C18.4854 22.8681 18.4219 22.9774 18.3852 23.0941C18.3485 23.2108 18.3394 23.3324 18.3584 23.452C18.3774 23.5717 18.4242 23.6869 18.496 23.7912C18.8536 24.3156 19.4056 24.7254 20.0666 24.9572C20.7275 25.189 21.4604 25.2297 22.1515 25.073C22.8425 24.9164 23.4532 24.5712 23.8887 24.0909C24.3242 23.6106 24.5602 23.0221 24.5601 22.4167C24.5565 22.1037 24.489 21.7936 24.3605 21.5H25.6435V24.25C25.6435 24.4932 25.7576 24.7263 25.9608 24.8982C26.1639 25.0701 26.4395 25.1667 26.7268 25.1667C27.0141 25.1667 27.2897 25.0701 27.4928 24.8982C27.696 24.7263 27.8101 24.4932 27.8101 24.25V17.8334C28.0975 17.8334 28.373 17.7368 28.5762 17.5649C28.7793 17.393 28.8935 17.1598 28.8935 16.9167C28.8935 16.6736 28.7793 16.4404 28.5762 16.2685C28.373 16.0966 28.0975 16 27.8101 16ZM14.8429 15.3058C14.9127 15.5416 15.0902 15.7443 15.3365 15.8692C15.4585 15.9311 15.5937 15.9721 15.7344 15.9898C15.875 16.0074 16.0184 16.0015 16.1564 15.9723C16.2943 15.9431 16.4242 15.8912 16.5384 15.8195C16.6526 15.7478 16.7491 15.6578 16.8222 15.5546C16.8954 15.4514 16.9438 15.3371 16.9647 15.218C16.9856 15.099 16.9785 14.9777 16.944 14.8609L15.0408 8.41696C14.9072 7.96464 14.5987 7.5631 14.1645 7.27617C13.7302 6.98923 13.195 6.83337 12.644 6.83337C12.093 6.83337 11.5578 6.98923 11.1236 7.27617C10.6893 7.5631 10.3808 7.96464 10.2472 8.41696L8.34295 14.8609C8.27322 15.0967 8.31703 15.3462 8.46474 15.5546C8.61245 15.7631 8.85196 15.9133 9.13058 15.9723C9.4092 16.0313 9.70411 15.9942 9.95042 15.8692C10.1967 15.7443 10.3743 15.5416 10.444 15.3058L11.0515 13.25H14.2357L14.8429 15.3058ZM11.5933 11.4167L12.3483 8.86186C12.3712 8.8112 12.4117 8.76762 12.4645 8.73687C12.5173 8.70612 12.5799 8.68966 12.644 8.68966C12.7081 8.68966 12.7707 8.70612 12.8235 8.73687C12.8763 8.76762 12.9168 8.8112 12.9397 8.86186L13.6943 11.4167H11.5933ZM20.2268 11.4167H21.3101C21.5974 11.417 21.8728 11.5136 22.0759 11.6855C22.279 11.8573 22.3932 12.0903 22.3935 12.3334V13.25C22.3935 13.4932 22.5076 13.7263 22.7108 13.8982C22.9139 14.0701 23.1895 14.1667 23.4768 14.1667C23.7641 14.1667 24.0397 14.0701 24.2428 13.8982C24.446 13.7263 24.5601 13.4932 24.5601 13.25V12.3334C24.5592 11.6043 24.2165 10.9053 23.6072 10.3897C22.9979 9.87416 22.1718 9.58417 21.3101 9.58338H20.2268C19.9395 9.58338 19.6639 9.67996 19.4608 9.85186C19.2576 10.0238 19.1435 10.2569 19.1435 10.5C19.1435 10.7432 19.2576 10.9763 19.4608 11.1482C19.6639 11.3201 19.9395 11.4167 20.2268 11.4167ZM15.8935 19.6667H14.8101C14.5229 19.6665 14.2475 19.5698 14.0444 19.398C13.8413 19.2261 13.7271 18.9931 13.7268 18.75V17.8334C13.7268 17.5903 13.6127 17.3571 13.4095 17.1852C13.2063 17.0133 12.9308 16.9167 12.6435 16.9167C12.3562 16.9167 12.0806 17.0133 11.8774 17.1852C11.6743 17.3571 11.5601 17.5903 11.5601 17.8334V18.75C11.5611 19.4791 11.9038 20.1782 12.5131 20.6937C13.1224 21.2093 13.9485 21.4992 14.8101 21.5H15.8935C16.1808 21.5 16.4563 21.4035 16.6595 21.2316C16.8627 21.0596 16.9768 20.8265 16.9768 20.5834C16.9768 20.3403 16.8627 20.1071 16.6595 19.9352C16.4563 19.7633 16.1808 19.6667 15.8935 19.6667Z" fill="white"/>
</svg>
