<svg width="44" height="44" viewBox="0 0 44 44" fill="none" xmlns="http://www.w3.org/2000/svg">
<ellipse cx="22" cy="21.6945" rx="22" ry="21.6945" fill="#33691E"/>
<path d="M32.3198 22H29.8198C29.4883 22 29.1704 22.1141 28.936 22.3173C28.7015 22.5204 28.5698 22.796 28.5698 23.0833C28.5698 23.3706 28.7015 23.6462 28.936 23.8493C29.1704 24.0525 29.4883 24.1666 29.8198 24.1666V26.3333H28.3395C28.4877 25.9864 28.5656 25.6199 28.5698 25.25C28.57 24.5345 28.2977 23.839 27.7951 23.2714C27.2926 22.7038 26.588 22.2957 25.7906 22.1106C24.9932 21.9255 24.1476 21.9736 23.385 22.2475C22.6223 22.5214 21.9853 23.0058 21.5728 23.6255C21.4899 23.7488 21.4359 23.885 21.414 24.0264C21.3921 24.1678 21.4025 24.3115 21.4449 24.4494C21.4872 24.5873 21.5605 24.7165 21.6607 24.8297C21.7608 24.943 21.8858 25.038 22.0284 25.1092C22.171 25.1805 22.3284 25.2266 22.4916 25.245C22.6549 25.2634 22.8207 25.2537 22.9796 25.2164C23.1385 25.1791 23.2873 25.1149 23.4175 25.0276C23.5477 24.9404 23.6567 24.8316 23.7383 24.7077C23.8481 24.5434 24.0058 24.4068 24.1956 24.3119C24.3854 24.2169 24.6007 24.1668 24.8198 24.1666C25.1514 24.1666 25.4693 24.2808 25.7037 24.4839C25.9382 24.6871 26.0698 24.9626 26.0698 25.25C26.0698 25.5373 25.9382 25.8128 25.7037 26.016C25.4693 26.2192 25.1514 26.3333 24.8198 26.3333C24.4883 26.3333 24.1704 26.4474 23.936 26.6506C23.7015 26.8538 23.5698 27.1293 23.5698 27.4166C23.5698 27.7039 23.7015 27.9795 23.936 28.1827C24.1704 28.3858 24.4883 28.5 24.8198 28.5C25.1514 28.5 25.4693 28.6141 25.7037 28.8173C25.9382 29.0204 26.0698 29.296 26.0698 29.5833C26.0698 29.8706 25.9382 30.1462 25.7037 30.3493C25.4693 30.5525 25.1514 30.6666 24.8198 30.6666C24.6007 30.6664 24.3854 30.6163 24.1956 30.5214C24.0058 30.4264 23.8481 30.2899 23.7383 30.1255C23.6567 30.0016 23.5477 29.8929 23.4175 29.8056C23.2873 29.7183 23.1385 29.6542 22.9796 29.6169C22.8207 29.5796 22.6549 29.5698 22.4916 29.5882C22.3284 29.6066 22.171 29.6528 22.0284 29.724C21.8858 29.7953 21.7608 29.8903 21.6607 30.0035C21.5606 30.1167 21.4872 30.246 21.4449 30.3838C21.4026 30.5217 21.3921 30.6655 21.414 30.8069C21.436 30.9482 21.4899 31.0845 21.5728 31.2077C21.9853 31.8274 22.6223 32.3118 23.385 32.5857C24.1476 32.8596 24.9932 32.9077 25.7906 32.7226C26.588 32.5375 27.2926 32.1295 27.7951 31.5618C28.2976 30.9942 28.57 30.2987 28.5698 29.5833C28.5656 29.2134 28.4877 28.8469 28.3395 28.5H29.8198V31.75C29.8198 32.0373 29.9515 32.3128 30.186 32.516C30.4204 32.7192 30.7383 32.8333 31.0698 32.8333C31.4014 32.8333 31.7193 32.7192 31.9537 32.516C32.1882 32.3128 32.3198 32.0373 32.3198 31.75V24.1666C32.6514 24.1666 32.9693 24.0525 33.2037 23.8493C33.4382 23.6462 33.5698 23.3706 33.5698 23.0833C33.5698 22.796 33.4382 22.5204 33.2037 22.3173C32.9693 22.1141 32.6514 22 32.3198 22ZM17.3577 21.1795C17.4382 21.4582 17.643 21.6977 17.9272 21.8454C18.068 21.9185 18.2239 21.9669 18.3862 21.9878C18.5486 22.0087 18.714 22.0017 18.8732 21.9672C19.0324 21.9326 19.1822 21.8713 19.314 21.7866C19.4458 21.7019 19.5571 21.5955 19.6415 21.4736C19.7259 21.3516 19.7817 21.2164 19.8058 21.0758C19.8299 20.9351 19.8218 20.7917 19.782 20.6537L17.586 13.0381C17.4318 12.5036 17.0759 12.029 16.5748 11.6899C16.0737 11.3508 15.4562 11.1666 14.8205 11.1666C14.1847 11.1666 13.5672 11.3508 13.0661 11.6899C12.565 12.029 12.2091 12.5036 12.055 13.0381L9.8577 20.6537C9.77724 20.9323 9.82779 21.2273 9.99823 21.4736C10.1687 21.7199 10.445 21.8974 10.7665 21.9672C11.088 22.0369 11.4283 21.9931 11.7125 21.8454C11.9967 21.6977 12.2016 21.4582 12.282 21.1795L12.983 18.75H16.6571L17.3577 21.1795ZM13.6081 16.5833L14.4793 13.5639C14.5057 13.5041 14.5524 13.4525 14.6134 13.4162C14.6743 13.3799 14.7465 13.3604 14.8205 13.3604C14.8944 13.3604 14.9666 13.3799 15.0276 13.4162C15.0885 13.4525 15.1352 13.5041 15.1616 13.5639L16.0323 16.5833H13.6081ZM23.5698 16.5833H24.8198C25.1513 16.5836 25.469 16.6978 25.7034 16.9009C25.9377 17.104 26.0695 17.3794 26.0698 17.6666V18.75C26.0698 19.0373 26.2015 19.3128 26.436 19.516C26.6704 19.7192 26.9883 19.8333 27.3198 19.8333C27.6514 19.8333 27.9693 19.7192 28.2037 19.516C28.4382 19.3128 28.5698 19.0373 28.5698 18.75V17.6666C28.5688 16.805 28.1733 15.9789 27.4703 15.3696C26.7673 14.7603 25.8141 14.4176 24.8198 14.4166H23.5698C23.2383 14.4166 22.9204 14.5308 22.686 14.7339C22.4515 14.9371 22.3198 15.2126 22.3198 15.5C22.3198 15.7873 22.4515 16.0628 22.686 16.266C22.9204 16.4692 23.2383 16.5833 23.5698 16.5833ZM18.5698 26.3333H17.3198C16.9884 26.333 16.6707 26.2188 16.4363 26.0157C16.202 25.8126 16.0702 25.5372 16.0698 25.25V24.1666C16.0698 23.8793 15.9382 23.6038 15.7037 23.4006C15.4693 23.1974 15.1514 23.0833 14.8198 23.0833C14.4883 23.0833 14.1704 23.1974 13.936 23.4006C13.7015 23.6038 13.5698 23.8793 13.5698 24.1666V25.25C13.5709 26.1116 13.9664 26.9377 14.6694 27.547C15.3724 28.1563 16.3256 28.499 17.3198 28.5H18.5698C18.9014 28.5 19.2193 28.3858 19.4537 28.1827C19.6882 27.9795 19.8198 27.7039 19.8198 27.4166C19.8198 27.1293 19.6882 26.8538 19.4537 26.6506C19.2193 26.4474 18.9014 26.3333 18.5698 26.3333Z" fill="white"/>
</svg>
