<svg width="36" height="32" viewBox="0 0 36 32" fill="none" xmlns="http://www.w3.org/2000/svg">
<rect width="36" height="32" rx="5" fill="#33691E"/>
<path d="M18 15.5C17.337 15.5 16.7011 15.2366 16.2322 14.7678C15.7634 14.2989 15.5 13.663 15.5 13C15.5 12.337 15.7634 11.7011 16.2322 11.2322C16.7011 10.7634 17.337 10.5 18 10.5C18.663 10.5 19.2989 10.7634 19.7678 11.2322C20.2366 11.7011 20.5 12.337 20.5 13C20.5 13.3283 20.4353 13.6534 20.3097 13.9567C20.1841 14.26 19.9999 14.5356 19.7678 14.7678C19.5356 14.9999 19.26 15.1841 18.9567 15.3097C18.6534 15.4353 18.3283 15.5 18 15.5ZM18 6C16.1435 6 14.363 6.7375 13.0503 8.05025C11.7375 9.36301 11 11.1435 11 13C11 18.25 18 26 18 26C18 26 25 18.25 25 13C25 11.1435 24.2625 9.36301 22.9497 8.05025C21.637 6.7375 19.8565 6 18 6Z" fill="white"/>
</svg>
