<svg width="13" height="24" viewBox="0 0 13 24" fill="none" xmlns="http://www.w3.org/2000/svg">
<path d="M11.3038 5.82109L9.47291 2.95516H9.81203C10.3383 2.95516 10.7646 2.5289 10.7646 2.00259V1.45252C10.7646 0.926578 10.3383 0.5 9.81203 0.5H6.50084H3.18888C2.6633 0.5 2.23708 0.926578 2.23708 1.45252V2.00264C2.23708 2.52894 2.6633 2.9552 3.18888 2.9552H3.52876L1.69784 5.82109C0.952672 6.98712 0.556641 8.34215 0.556641 9.72597V20.3501C0.556641 22.0895 1.9671 23.5 3.70733 23.5H9.2944C11.0346 23.5 12.4443 22.0895 12.4443 20.3501V9.72592C12.4443 8.3421 12.049 6.98708 11.3038 5.82109ZM10.6357 20.3501C10.6357 21.0895 10.0338 21.6911 9.2943 21.6911H3.70728C2.96782 21.6911 2.36591 21.0895 2.36591 20.3501V10.3091C5.83555 9.64385 7.41733 12.207 10.6357 12.0299V20.3501Z" fill="#33691E"/>
</svg>
