<svg width="44" height="44" viewBox="0 0 44 44" fill="none" xmlns="http://www.w3.org/2000/svg">
<ellipse cx="22" cy="21.6945" rx="22" ry="21.6945" fill="#33691E"/>
<path d="M14 28.6943V26.6943H16V19.6943C16 18.311 16.4167 17.082 17.25 16.0073C18.0833 14.9327 19.1667 14.2283 20.5 13.8943V13.1943C20.5 12.7777 20.646 12.4237 20.938 12.1323C21.23 11.841 21.584 11.695 22 11.6943C22.416 11.6937 22.7703 11.8397 23.063 12.1323C23.3557 12.425 23.5013 12.779 23.5 13.1943V13.8943C24.8333 14.2277 25.9167 14.932 26.75 16.0073C27.5833 17.0827 28 18.3117 28 19.6943V26.6943H30V28.6943H14ZM22 31.6943C21.45 31.6943 20.9793 31.4987 20.588 31.1073C20.1967 30.716 20.0007 30.245 20 29.6943H24C24 30.2443 23.8043 30.7153 23.413 31.1073C23.0217 31.4993 22.5507 31.695 22 31.6943ZM18 26.6943H26V19.6943C26 18.5943 25.6083 17.6527 24.825 16.8693C24.0417 16.086 23.1 15.6943 22 15.6943C20.9 15.6943 19.9583 16.086 19.175 16.8693C18.3917 17.6527 18 18.5943 18 19.6943V26.6943Z" fill="white"/>
</svg>
