<svg width="36" height="32" viewBox="0 0 36 32" fill="none" xmlns="http://www.w3.org/2000/svg">
<rect width="36" height="32" rx="5" fill="#33691E"/>
<path d="M10 23V21H12V14C12 12.6167 12.4167 11.3877 13.25 10.313C14.0833 9.23834 15.1667 8.534 16.5 8.2V7.5C16.5 7.08334 16.646 6.72934 16.938 6.438C17.23 6.14667 17.584 6.00067 18 6C18.416 5.99934 18.7703 6.14534 19.063 6.438C19.3557 6.73067 19.5013 7.08467 19.5 7.5V8.2C20.8333 8.53334 21.9167 9.23767 22.75 10.313C23.5833 11.3883 24 12.6173 24 14V21H26V23H10ZM18 26C17.45 26 16.9793 25.8043 16.588 25.413C16.1967 25.0217 16.0007 24.5507 16 24H20C20 24.55 19.8043 25.021 19.413 25.413C19.0217 25.805 18.5507 26.0007 18 26ZM14 21H22V14C22 12.9 21.6083 11.9583 20.825 11.175C20.0417 10.3917 19.1 10 18 10C16.9 10 15.9583 10.3917 15.175 11.175C14.3917 11.9583 14 12.9 14 14V21Z" fill="white"/>
</svg>
