<svg width="46" height="44" viewBox="0 0 46 44" fill="none" xmlns="http://www.w3.org/2000/svg">
<ellipse cx="22.9999" cy="21.6945" rx="22.246" ry="21.6945" fill="#33691E"/>
<path fill-rule="evenodd" clip-rule="evenodd" d="M25.2339 10.1775C25.3427 10.3888 25.3702 10.66 25.4239 11.2025C25.5264 12.2275 25.5777 12.74 25.7927 13.0225C25.9266 13.1979 26.1046 13.3347 26.3086 13.419C26.5126 13.5033 26.7352 13.5321 26.9539 13.5025C27.3039 13.4563 27.7039 13.13 28.5014 12.4775C28.9227 12.1312 29.1339 11.9588 29.3602 11.8863C29.6483 11.7942 29.9601 11.8097 30.2377 11.93C30.4564 12.025 30.6502 12.2175 31.0339 12.6025L32.1514 13.72C32.5364 14.105 32.7289 14.2975 32.8239 14.5163C32.9442 14.7938 32.9597 15.1056 32.8677 15.3938C32.7952 15.62 32.6227 15.8312 32.2777 16.2525C31.6239 17.0512 31.2977 17.45 31.2502 17.8012C31.2209 18.0199 31.25 18.2423 31.3345 18.4461C31.4191 18.6498 31.556 18.8275 31.7314 18.9613C32.0127 19.1763 32.5264 19.2275 33.5527 19.33C34.0939 19.3837 34.3652 19.4113 34.5777 19.52C34.8457 19.659 35.0544 19.8903 35.1652 20.1712C35.2539 20.3925 35.2539 20.665 35.2539 21.21V22.79C35.2539 23.335 35.2539 23.6075 35.1664 23.8275C35.0553 24.1093 34.8456 24.3412 34.5764 24.48C34.3652 24.5887 34.0939 24.6163 33.5514 24.67C32.5264 24.7725 32.0139 24.8237 31.7314 25.0387C31.556 25.1727 31.4192 25.3507 31.3349 25.5547C31.2506 25.7586 31.2218 25.9813 31.2514 26.2C31.2989 26.55 31.6252 26.95 32.2777 27.7475C32.6227 28.1687 32.7952 28.3787 32.8677 28.6063C32.9597 28.8944 32.9442 29.2062 32.8239 29.4837C32.7289 29.7025 32.5364 29.895 32.1514 30.28L31.0339 31.3962C30.6489 31.7825 30.4564 31.975 30.2377 32.0688C29.9601 32.189 29.6483 32.2046 29.3602 32.1125C29.1339 32.04 28.9227 31.8675 28.5014 31.5225C27.7027 30.87 27.3039 30.5438 26.9539 30.4975C26.7352 30.4679 26.5126 30.4967 26.3086 30.581C26.1046 30.6653 25.9266 30.8021 25.7927 30.9775C25.5777 31.2587 25.5264 31.7712 25.4239 32.7975C25.3702 33.34 25.3427 33.6112 25.2339 33.8225C25.0954 34.0915 24.864 34.3011 24.5827 34.4125C24.3614 34.5 24.0889 34.5 23.5439 34.5H21.9639C21.4189 34.5 21.1464 34.5 20.9264 34.4125C20.6446 34.3014 20.4127 34.0917 20.2739 33.8225C20.1652 33.6112 20.1377 33.34 20.0839 32.7975C19.9814 31.7725 19.9302 31.26 19.7152 30.9775C19.5813 30.8023 19.4035 30.6656 19.1998 30.5813C18.9961 30.497 18.7737 30.4681 18.5552 30.4975C18.2039 30.5438 17.8052 30.87 17.0064 31.5225C16.5852 31.8687 16.3739 32.0413 16.1477 32.1138C15.8595 32.2058 15.5477 32.1903 15.2702 32.07C15.0514 31.975 14.8577 31.7825 14.4739 31.3975L13.3564 30.28C12.9714 29.895 12.7789 29.7025 12.6839 29.4837C12.5636 29.2062 12.5481 28.8944 12.6402 28.6063C12.7127 28.38 12.8852 28.1687 13.2302 27.7475C13.8839 26.9487 14.2102 26.55 14.2564 26.1987C14.2858 25.9802 14.2569 25.7578 14.1726 25.5541C14.0883 25.3504 13.9516 25.1726 13.7764 25.0387C13.4952 24.8237 12.9814 24.7725 11.9552 24.67C11.4139 24.6163 11.1427 24.5887 10.9302 24.48C10.6621 24.341 10.4534 24.1097 10.3427 23.8288C10.2539 23.6075 10.2539 23.335 10.2539 22.79V21.21C10.2539 20.665 10.2539 20.3925 10.3414 20.1725C10.4525 19.8907 10.6622 19.6588 10.9314 19.52C11.1427 19.4113 11.4139 19.3837 11.9564 19.33C12.9814 19.2275 13.4952 19.1763 13.7764 18.9613C13.9518 18.8275 14.0888 18.6498 14.1733 18.4461C14.2578 18.2423 14.2869 18.0199 14.2577 17.8012C14.2102 17.45 13.8827 17.0512 13.2302 16.2513C12.8852 15.83 12.7127 15.62 12.6402 15.3925C12.5481 15.1043 12.5636 14.7926 12.6839 14.515C12.7789 14.2975 12.9714 14.1038 13.3564 13.7188L14.4739 12.6025C14.8589 12.2175 15.0514 12.0238 15.2702 11.93C15.5477 11.8097 15.8595 11.7942 16.1477 11.8863C16.3739 11.9588 16.5852 12.1313 17.0064 12.4763C17.8052 13.1288 18.2039 13.455 18.5539 13.5025C18.7729 13.5322 18.9959 13.5033 19.2001 13.4188C19.4043 13.3343 19.5825 13.1971 19.7164 13.0212C19.9289 12.74 19.9814 12.2275 20.0839 11.2013C20.1377 10.66 20.1652 10.3887 20.2739 10.1762C20.4127 9.90771 20.644 9.69855 20.9252 9.5875C21.1464 9.5 21.4189 9.5 21.9639 9.5H23.5439C24.0889 9.5 24.3614 9.5 24.5814 9.5875C24.8632 9.69861 25.0951 9.90827 25.2339 10.1775ZM22.7539 27C24.08 27 25.3518 26.4732 26.2894 25.5355C27.2271 24.5979 27.7539 23.3261 27.7539 22C27.7539 20.6739 27.2271 19.4021 26.2894 18.4645C25.3518 17.5268 24.08 17 22.7539 17C21.4278 17 20.1561 17.5268 19.2184 18.4645C18.2807 19.4021 17.7539 20.6739 17.7539 22C17.7539 23.3261 18.2807 24.5979 19.2184 25.5355C20.1561 26.4732 21.4278 27 22.7539 27Z" fill="white"/>
</svg>
