<svg width="39" height="38" viewBox="0 0 39 38" fill="none" xmlns="http://www.w3.org/2000/svg">
<path fill-rule="evenodd" clip-rule="evenodd" d="M22.6417 4.02491C22.7794 4.2925 22.8142 4.63608 22.8823 5.32325C23.0122 6.62158 23.0771 7.27075 23.3494 7.62858C23.5191 7.85076 23.7446 8.02405 24.0029 8.13084C24.2613 8.23763 24.5433 8.27411 24.8203 8.23658C25.2637 8.178 25.7703 7.76475 26.7805 6.93825C27.3141 6.49966 27.5817 6.28116 27.8682 6.18933C28.2332 6.0727 28.6282 6.09239 28.9797 6.24475C29.2568 6.36508 29.5022 6.60891 29.9883 7.09658L31.4038 8.51208C31.8915 8.99975 32.1353 9.24358 32.2557 9.52066C32.408 9.87225 32.4277 10.2672 32.3111 10.6322C32.2192 10.9187 32.0007 11.1863 31.5637 11.7199C30.7357 12.7317 30.3224 13.2367 30.2622 13.6817C30.2252 13.9586 30.262 14.2404 30.3691 14.4984C30.4762 14.7565 30.6496 14.9816 30.8718 15.151C31.2281 15.4233 31.8788 15.4882 33.1787 15.6181C33.8643 15.6862 34.2079 15.721 34.4771 15.8587C34.8166 16.0348 35.081 16.3278 35.2212 16.6837C35.3337 16.9639 35.3337 17.3091 35.3337 17.9994V20.0007C35.3337 20.6911 35.3337 21.0362 35.2228 21.3149C35.0821 21.6719 34.8165 21.9656 34.4755 22.1414C34.2079 22.2792 33.8643 22.314 33.1772 22.3821C31.8788 22.5119 31.2297 22.5768 30.8718 22.8492C30.6496 23.0188 30.4764 23.2443 30.3696 23.5027C30.2628 23.761 30.2263 24.0431 30.2638 24.3201C30.324 24.7634 30.7372 25.2701 31.5637 26.2802C32.0007 26.8138 32.2192 27.0798 32.3111 27.368C32.4277 27.733 32.408 28.1279 32.2557 28.4795C32.1353 28.7566 31.8915 29.0004 31.4038 29.4881L29.9883 30.902C29.5007 31.3912 29.2568 31.6351 28.9797 31.7538C28.6282 31.9062 28.2332 31.9259 27.8682 31.8092C27.5817 31.7174 27.3141 31.4989 26.7805 31.0619C25.7687 30.2354 25.2637 29.8222 24.8203 29.7636C24.5433 29.726 24.2613 29.7625 24.0029 29.8693C23.7446 29.9761 23.5191 30.1494 23.3494 30.3716C23.0771 30.7278 23.0122 31.377 22.8823 32.6769C22.8142 33.3641 22.7794 33.7077 22.6417 33.9752C22.4662 34.316 22.1731 34.5815 21.8167 34.7226C21.5365 34.8334 21.1913 34.8334 20.501 34.8334H18.4997C17.8093 34.8334 17.4642 34.8334 17.1855 34.7226C16.8285 34.5818 16.5348 34.3163 16.359 33.9752C16.2212 33.7077 16.1864 33.3641 16.1183 32.6769C15.9885 31.3786 15.9236 30.7294 15.6512 30.3716C15.4817 30.1497 15.2565 29.9765 14.9984 29.8697C14.7404 29.763 14.4587 29.7263 14.1819 29.7636C13.737 29.8222 13.2319 30.2354 12.2202 31.0619C11.6866 31.5005 11.419 31.719 11.1324 31.8108C10.7674 31.9275 10.3725 31.9078 10.0209 31.7554C9.74383 31.6351 9.49841 31.3912 9.01233 30.9036L7.59683 29.4881C7.10916 29.0004 6.86533 28.7566 6.74499 28.4795C6.59263 28.1279 6.57294 27.733 6.68958 27.368C6.78141 27.0814 6.99991 26.8138 7.43691 26.2802C8.26499 25.2685 8.67824 24.7634 8.73683 24.3185C8.77407 24.0417 8.73744 23.76 8.63066 23.502C8.52388 23.2439 8.35075 23.0187 8.12883 22.8492C7.77257 22.5768 7.12183 22.5119 5.82191 22.3821C5.13633 22.314 4.79274 22.2792 4.52358 22.1414C4.18403 21.9654 3.91969 21.6723 3.77941 21.3165C3.66699 21.0362 3.66699 20.6911 3.66699 20.0007V17.9994C3.66699 17.3091 3.66699 16.9639 3.77783 16.6852C3.91856 16.3283 4.18413 16.0346 4.52516 15.8587C4.79274 15.721 5.13633 15.6862 5.82349 15.6181C7.12183 15.4882 7.77257 15.4233 8.12883 15.151C8.35103 14.9816 8.52448 14.7565 8.63154 14.4984C8.7386 14.2404 8.77547 13.9586 8.73841 13.6817C8.67824 13.2367 8.26341 12.7317 7.43691 11.7183C6.99991 11.1847 6.78141 10.9187 6.68958 10.6306C6.57294 10.2656 6.59263 9.87067 6.74499 9.51908C6.86533 9.24358 7.10916 8.99816 7.59683 8.5105L9.01233 7.09658C9.49999 6.60891 9.74383 6.3635 10.0209 6.24475C10.3725 6.09239 10.7674 6.0727 11.1324 6.18933C11.419 6.28116 11.6866 6.49966 12.2202 6.93666C13.2319 7.76316 13.737 8.17641 14.1803 8.23658C14.4577 8.27423 14.7402 8.23764 14.9989 8.13056C15.2575 8.02347 15.4832 7.84972 15.6528 7.627C15.922 7.27075 15.9885 6.62158 16.1183 5.32166C16.1864 4.63608 16.2212 4.2925 16.359 4.02333C16.5348 3.68319 16.8278 3.41825 17.1839 3.27758C17.4642 3.16675 17.8093 3.16675 18.4997 3.16675H20.501C21.1913 3.16675 21.5365 3.16675 21.8152 3.27758C22.1721 3.41832 22.4658 3.68389 22.6417 4.02491ZM19.5003 25.3334C21.18 25.3334 22.7909 24.6662 23.9787 23.4784C25.1664 22.2907 25.8337 20.6798 25.8337 19.0001C25.8337 17.3204 25.1664 15.7095 23.9787 14.5217C22.7909 13.334 21.18 12.6667 19.5003 12.6667C17.8206 12.6667 16.2097 13.334 15.022 14.5217C13.8343 15.7095 13.167 17.3204 13.167 19.0001C13.167 20.6798 13.8343 22.2907 15.022 23.4784C16.2097 24.6662 17.8206 25.3334 19.5003 25.3334Z" fill="#33691E"/>
</svg>
