<svg width="44" height="44" viewBox="0 0 44 44" fill="none" xmlns="http://www.w3.org/2000/svg">
<ellipse cx="22" cy="21.6945" rx="22" ry="21.6945" fill="#33691E"/>
<path d="M29.392 24.6919C29.777 23.709 29.986 22.6568 29.986 21.5004C29.986 20.6679 29.865 19.87 29.656 19.1299C28.941 19.3034 28.193 19.3959 27.412 19.3959C25.8126 19.3977 24.2362 18.9953 22.8157 18.2225C21.3952 17.4497 20.1723 16.3292 19.25 14.9556C18.2644 17.4657 16.4029 19.4845 14.047 20.5985C14.003 20.8876 14.003 21.1998 14.003 21.5004C14.003 22.6044 14.2098 23.6976 14.6117 24.7175C15.0136 25.7374 15.6027 26.6642 16.3453 27.4448C17.845 29.0213 19.8791 29.907 22 29.907C23.155 29.907 24.266 29.6411 25.267 29.167C25.894 30.4274 26.18 31.0518 26.158 31.0518C24.354 31.6878 22.957 32 22 32C19.338 32 16.797 30.9015 14.927 28.9241C13.7886 27.733 12.9429 26.2686 12.463 24.6572H11V19.3959H12.199C12.5623 17.5371 13.3974 15.8163 14.6159 14.4162C15.8344 13.0161 17.3907 11.9889 19.1197 11.4435C20.8487 10.8981 22.6859 10.8549 24.4364 11.3185C26.1868 11.7821 27.7852 12.7353 29.062 14.0767C30.4478 15.5286 31.3932 17.3796 31.779 19.3959H33V24.6572H32.934L29.018 28.4385L23.188 27.7447V25.8136H28.501L29.392 24.6919ZM18.997 21.2345C19.327 21.2345 19.646 21.3732 19.877 21.6276C20.1092 21.8737 20.2394 22.2062 20.2394 22.5527C20.2394 22.8992 20.1092 23.2317 19.877 23.4778C19.646 23.7206 19.327 23.8594 18.997 23.8594C18.304 23.8594 17.743 23.2812 17.743 22.5527C17.743 21.8242 18.304 21.2345 18.997 21.2345ZM24.992 21.2345C25.685 21.2345 26.235 21.8242 26.235 22.5527C26.235 23.2812 25.685 23.8594 24.992 23.8594C24.299 23.8594 23.738 23.2812 23.738 22.5527C23.738 22.2031 23.8701 21.8678 24.1053 21.6206C24.3405 21.3734 24.6594 21.2345 24.992 21.2345Z" fill="white"/>
</svg>
