<svg width="36" height="32" viewBox="0 0 36 32" fill="none" xmlns="http://www.w3.org/2000/svg">
<rect width="36" height="32" rx="5" fill="#33691E"/>
<path d="M24.72 18.8408C25.07 17.9908 25.26 17.0808 25.26 16.0808C25.26 15.3608 25.15 14.6708 24.96 14.0308C24.31 14.1808 23.63 14.2608 22.92 14.2608C21.466 14.2623 20.0329 13.9143 18.7415 13.246C17.4502 12.5777 16.3384 11.6087 15.5 10.4208C14.604 12.5915 12.9117 14.3374 10.77 15.3008C10.73 15.5508 10.73 15.8208 10.73 16.0808C10.73 17.0355 10.918 17.9808 11.2834 18.8629C11.6487 19.7449 12.1843 20.5463 12.8593 21.2214C14.2227 22.5848 16.0719 23.3508 18 23.3508C19.05 23.3508 20.06 23.1208 20.97 22.7108C21.54 23.8008 21.8 24.3408 21.78 24.3408C20.14 24.8908 18.87 25.1608 18 25.1608C15.58 25.1608 13.27 24.2108 11.57 22.5008C10.535 21.4707 9.76627 20.2043 9.33 18.8108H8V14.2608H9.09C9.42024 12.6533 10.1795 11.1652 11.2872 9.95435C12.3949 8.74353 13.8097 7.85516 15.3815 7.38352C16.9534 6.91187 18.6235 6.87453 20.2149 7.27546C21.8062 7.6764 23.2593 8.50065 24.42 9.66076C25.6798 10.9163 26.5393 12.517 26.89 14.2608H28V18.8108H27.94L24.38 22.0808L19.08 21.4808V19.8108H23.91L24.72 18.8408ZM15.27 15.8508C15.57 15.8508 15.86 15.9708 16.07 16.1908C16.281 16.4035 16.3995 16.6911 16.3995 16.9908C16.3995 17.2904 16.281 17.578 16.07 17.7908C15.86 18.0008 15.57 18.1208 15.27 18.1208C14.64 18.1208 14.13 17.6208 14.13 16.9908C14.13 16.3608 14.64 15.8508 15.27 15.8508ZM20.72 15.8508C21.35 15.8508 21.85 16.3608 21.85 16.9908C21.85 17.6208 21.35 18.1208 20.72 18.1208C20.09 18.1208 19.58 17.6208 19.58 16.9908C19.58 16.6884 19.7001 16.3984 19.9139 16.1847C20.1277 15.9709 20.4177 15.8508 20.72 15.8508Z" fill="white"/>
</svg>
