<svg width="36" height="32" viewBox="0 0 36 32" fill="none" xmlns="http://www.w3.org/2000/svg">
<rect width="36" height="32" rx="5" fill="#33691E"/>
<g clip-path="url(#clip0_338_1097)">
<path d="M11.3748 10.75V23.4167H25.6248V25H11.3748C10.9549 25 10.5522 24.8332 10.2553 24.5363C9.95832 24.2393 9.7915 23.8366 9.7915 23.4167V10.75H11.3748ZM21.6665 13.125H26.0207L21.6665 8.77084V13.125ZM14.5415 7.58334H22.4582L27.2082 12.3333V20.25C27.2082 20.6699 27.0414 21.0727 26.7444 21.3696C26.4475 21.6665 26.0448 21.8333 25.6248 21.8333H14.5415C14.1216 21.8333 13.7189 21.6665 13.4219 21.3696C13.125 21.0727 12.9582 20.6699 12.9582 20.25V9.16668C12.9582 8.74675 13.125 8.34402 13.4219 8.04709C13.7189 7.75016 14.1216 7.58334 14.5415 7.58334ZM14.5415 9.16668V20.25H25.6248V14.7083H20.0832V9.16668H14.5415Z" fill="white"/>
</g>
<defs>
<clipPath id="clip0_338_1097">
<rect width="19" height="19" fill="white" transform="translate(9 6)"/>
</clipPath>
</defs>
</svg>
