<svg width="44" height="44" viewBox="0 0 44 44" fill="none" xmlns="http://www.w3.org/2000/svg">
<ellipse cx="22" cy="21.6945" rx="22" ry="21.6945" fill="#33691E"/>
<g clip-path="url(#clip0_485_582)">
<path d="M14.3743 16.9445V29.6111H28.6243V31.1945H14.3743C13.9544 31.1945 13.5517 31.0276 13.2548 30.7307C12.9578 30.4338 12.791 30.031 12.791 29.6111V16.9445H14.3743ZM24.666 19.3195H29.0202L24.666 14.9653V19.3195ZM17.541 13.7778H25.4577L30.2077 18.5278V26.4445C30.2077 26.8644 30.0409 27.2671 29.7439 27.564C29.447 27.861 29.0443 28.0278 28.6243 28.0278H17.541C17.1211 28.0278 16.7184 27.861 16.4214 27.564C16.1245 27.2671 15.9577 26.8644 15.9577 26.4445V15.3611C15.9577 14.9412 16.1245 14.5385 16.4214 14.2415C16.7184 13.9446 17.1211 13.7778 17.541 13.7778ZM17.541 15.3611V26.4445H28.6243V20.9028H23.0827V15.3611H17.541Z" fill="white"/>
</g>
<defs>
<clipPath id="clip0_485_582">
<rect width="19" height="19" fill="white" transform="translate(12 12.1945)"/>
</clipPath>
</defs>
</svg>
