<svg width="25" height="25" viewBox="0 0 25 25" fill="none" xmlns="http://www.w3.org/2000/svg">
<path d="M3.125 21.875V3.125H21.875V12.1875C21.5451 12.0312 21.2066 11.8969 20.8594 11.7844C20.5122 11.6719 20.1562 11.5892 19.7917 11.5365V5.20833H5.20833V19.7917H11.5104C11.5625 20.1736 11.6451 20.5382 11.7583 20.8854C11.8715 21.2326 12.0059 21.5625 12.1615 21.875H3.125ZM5.20833 18.75V19.7917V5.20833V11.5365V11.4583V18.75ZM7.29167 17.7083H11.5365C11.5885 17.3438 11.6712 16.9878 11.7844 16.6406C11.8976 16.2934 12.0233 15.9549 12.1615 15.625H7.29167V17.7083ZM7.29167 13.5417H13.6458C14.2014 13.0208 14.8222 12.5868 15.5083 12.2396C16.1944 11.8924 16.9278 11.658 17.7083 11.5365V11.4583H7.29167V13.5417ZM7.29167 9.375H17.7083V7.29167H7.29167V9.375ZM18.75 23.9583C17.309 23.9583 16.0809 23.4503 15.0656 22.4344C14.0503 21.4184 13.5424 20.1903 13.5417 18.75C13.541 17.3097 14.049 16.0816 15.0656 15.0656C16.0823 14.0497 17.3104 13.5417 18.75 13.5417C20.1896 13.5417 21.4181 14.0497 22.4354 15.0656C23.4528 16.0816 23.9604 17.3097 23.9583 18.75C23.9562 20.1903 23.4483 21.4188 22.4344 22.4354C21.4205 23.4521 20.1924 23.9597 18.75 23.9583ZM18.2292 21.875H19.2708V19.2708H21.875V18.2292H19.2708V15.625H18.2292V18.2292H15.625V19.2708H18.2292V21.875Z" fill="#33691E"/>
</svg>
