<svg width="215" height="141" viewBox="0 0 215 141" fill="none" xmlns="http://www.w3.org/2000/svg">
<path d="M15.3557 59.03L3.97066 24.82C3.714 24.0867 3.80566 23.4083 4.24566 22.785C4.68566 22.1617 5.29066 21.85 6.06066 21.85H8.04066C8.95733 21.85 9.80066 22.1433 10.5707 22.73C11.3407 23.28 11.8357 23.995 12.0557 24.875L20.4707 54.41C20.4707 54.4467 20.489 54.465 20.5257 54.465C20.5623 54.465 20.5807 54.4467 20.5807 54.41L29.1057 24.82C29.3623 23.94 29.8573 23.225 30.5907 22.675C31.3607 22.125 32.204 21.85 33.1207 21.85H34.8807C35.6507 21.85 36.2557 22.1617 36.6957 22.785C37.1357 23.4083 37.2273 24.0867 36.9707 24.82L25.5857 59.03C25.2923 59.91 24.7607 60.625 23.9907 61.175C23.2573 61.725 22.414 62 21.4607 62H19.4807C18.564 62 17.7207 61.725 16.9507 61.175C16.2173 60.625 15.6857 59.91 15.3557 59.03ZM45.5683 62C44.7249 62 43.9916 61.6883 43.3683 61.065C42.7449 60.4417 42.4333 59.7083 42.4333 58.865V36.535C42.4333 35.6917 42.7449 34.9583 43.3683 34.335C43.9916 33.7117 44.7249 33.4 45.5683 33.4H46.9983C47.8416 33.4 48.5749 33.7117 49.1983 34.335C49.8216 34.9583 50.1333 35.6917 50.1333 36.535V58.865C50.1333 59.7083 49.8216 60.4417 49.1983 61.065C48.5749 61.6883 47.8416 62 46.9983 62H45.5683ZM45.5683 27.35C44.7249 27.35 43.9916 27.0383 43.3683 26.415C42.7449 25.7917 42.4333 25.0583 42.4333 24.215V23.885C42.4333 23.0417 42.7449 22.3083 43.3683 21.685C43.9916 21.0617 44.7249 20.75 45.5683 20.75H46.9983C47.8416 20.75 48.5749 21.0617 49.1983 21.685C49.8216 22.3083 50.1333 23.0417 50.1333 23.885V24.215C50.1333 25.0583 49.8216 25.7917 49.1983 26.415C48.5749 27.0383 47.8416 27.35 46.9983 27.35H45.5683ZM70.5323 62.55C65.9856 62.55 62.4839 61.3033 60.0273 58.81C57.5706 56.28 56.3423 52.5767 56.3423 47.7C56.3423 42.8967 57.5156 39.23 59.8623 36.7C62.2456 34.1333 65.6189 32.85 69.9823 32.85C71.9256 32.85 73.7956 32.9783 75.5923 33.235C76.4356 33.345 77.1323 33.73 77.6823 34.39C78.2323 35.05 78.5073 35.82 78.5073 36.7C78.5073 37.4333 78.2139 38.02 77.6273 38.46C77.0773 38.9 76.4356 39.0467 75.7023 38.9C74.2723 38.6067 72.6773 38.46 70.9173 38.46C68.6073 38.46 66.8839 39.1933 65.7473 40.66C64.6106 42.1267 64.0423 44.4733 64.0423 47.7C64.0423 51 64.6473 53.365 65.8573 54.795C67.0673 56.225 68.9373 56.94 71.4673 56.94C73.2639 56.94 74.8223 56.775 76.1423 56.445C76.8389 56.2617 77.4623 56.39 78.0123 56.83C78.5989 57.27 78.8923 57.8383 78.8923 58.535C78.8923 59.415 78.6173 60.185 78.0673 60.845C77.5539 61.505 76.8756 61.9083 76.0323 62.055C74.1623 62.385 72.3289 62.55 70.5323 62.55ZM86.3619 39.835C85.6286 39.835 85.0053 39.5783 84.4919 39.065C83.9786 38.515 83.7219 37.8733 83.7219 37.14C83.7219 36.4067 83.9786 35.7833 84.4919 35.27C85.0053 34.7567 85.6286 34.5 86.3619 34.5H89.0019C89.3319 34.5 89.4969 34.335 89.4969 34.005V27.185C89.4969 26.3417 89.7903 25.6083 90.3769 24.985C91.0003 24.3617 91.7336 24.05 92.5769 24.05H93.6769C94.5203 24.05 95.2536 24.3617 95.8769 24.985C96.5003 25.6083 96.8119 26.3417 96.8119 27.185V34.005C96.8119 34.335 96.9769 34.5 97.3069 34.5H103.577C104.31 34.5 104.934 34.7567 105.447 35.27C105.997 35.7833 106.272 36.4067 106.272 37.14C106.272 37.8733 105.997 38.515 105.447 39.065C104.934 39.5783 104.31 39.835 103.577 39.835H97.3069C96.9769 39.835 96.8119 39.9817 96.8119 40.275V51.385C96.8119 53.7683 97.0686 55.3083 97.5819 56.005C98.0953 56.7017 99.1586 57.05 100.772 57.05C101.652 57.05 102.312 57.0133 102.752 56.94C103.485 56.8667 104.127 57.0317 104.677 57.435C105.227 57.8383 105.502 58.3883 105.502 59.085C105.502 59.8917 105.227 60.625 104.677 61.285C104.164 61.9083 103.522 62.2567 102.752 62.33C101.139 62.4767 99.9286 62.55 99.1219 62.55C95.5653 62.55 93.0719 61.7983 91.6419 60.295C90.2119 58.755 89.4969 56.0233 89.4969 52.1V40.275C89.4969 39.9817 89.3319 39.835 89.0019 39.835H86.3619ZM129.079 40.495C128.016 38.955 126.402 38.185 124.239 38.185C122.076 38.185 120.444 38.955 119.344 40.495C118.281 41.9983 117.749 44.4 117.749 47.7C117.749 51 118.281 53.42 119.344 54.96C120.444 56.4633 122.076 57.215 124.239 57.215C126.402 57.215 128.016 56.4633 129.079 54.96C130.179 53.42 130.729 51 130.729 47.7C130.729 44.4 130.179 41.9983 129.079 40.495ZM134.469 58.7C132.049 61.2667 128.639 62.55 124.239 62.55C119.839 62.55 116.411 61.2667 113.954 58.7C111.534 56.0967 110.324 52.43 110.324 47.7C110.324 42.97 111.534 39.3217 113.954 36.755C116.411 34.1517 119.839 32.85 124.239 32.85C128.639 32.85 132.049 34.1517 134.469 36.755C136.926 39.3217 138.154 42.97 138.154 47.7C138.154 52.43 136.926 56.0967 134.469 58.7ZM145.866 62C145.023 62 144.289 61.6883 143.666 61.065C143.043 60.4417 142.731 59.7083 142.731 58.865V36.535C142.731 35.6917 143.043 34.9583 143.666 34.335C144.289 33.7117 145.023 33.4 145.866 33.4H146.966C147.809 33.4 148.543 33.7117 149.166 34.335C149.789 34.9583 150.101 35.6917 150.101 36.535V38.845C150.101 38.8817 150.119 38.9 150.156 38.9C150.229 38.9 150.266 38.8817 150.266 38.845C151.329 37.3783 152.723 36.1867 154.446 35.27C156.169 34.3167 158.058 33.73 160.111 33.51C160.881 33.4367 161.541 33.6933 162.091 34.28C162.641 34.83 162.916 35.49 162.916 36.26C162.916 37.03 162.641 37.69 162.091 38.24C161.541 38.79 160.881 39.1017 160.111 39.175C153.621 39.6883 150.376 42.9883 150.376 49.075V58.865C150.376 59.7083 150.064 60.4417 149.441 61.065C148.818 61.6883 148.084 62 147.241 62H145.866ZM173.11 62C172.267 62 171.534 61.6883 170.91 61.065C170.287 60.4417 169.975 59.7083 169.975 58.865V36.535C169.975 35.6917 170.287 34.9583 170.91 34.335C171.534 33.7117 172.267 33.4 173.11 33.4H174.54C175.384 33.4 176.117 33.7117 176.74 34.335C177.364 34.9583 177.675 35.6917 177.675 36.535V58.865C177.675 59.7083 177.364 60.4417 176.74 61.065C176.117 61.6883 175.384 62 174.54 62H173.11ZM173.11 27.35C172.267 27.35 171.534 27.0383 170.91 26.415C170.287 25.7917 169.975 25.0583 169.975 24.215V23.885C169.975 23.0417 170.287 22.3083 170.91 21.685C171.534 21.0617 172.267 20.75 173.11 20.75H174.54C175.384 20.75 176.117 21.0617 176.74 21.685C177.364 22.3083 177.675 23.0417 177.675 23.885V24.215C177.675 25.0583 177.364 25.7917 176.74 26.415C176.117 27.0383 175.384 27.35 174.54 27.35H173.11ZM199.284 48.25C194.041 48.25 191.419 49.8633 191.419 53.09C191.419 54.2633 191.749 55.2167 192.409 55.95C193.106 56.6833 193.986 57.05 195.049 57.05C197.139 57.05 198.826 56.4083 200.109 55.125C201.393 53.805 202.034 52.0083 202.034 49.735V48.745C202.034 48.415 201.869 48.25 201.539 48.25H199.284ZM193.069 62.55C190.576 62.55 188.504 61.7433 186.854 60.13C185.241 58.48 184.434 56.3533 184.434 53.75C184.434 50.56 185.644 48.085 188.064 46.325C190.521 44.565 194.261 43.685 199.284 43.685H201.539C201.869 43.685 202.034 43.52 202.034 43.19V42.75C202.034 41.0633 201.631 39.89 200.824 39.23C200.018 38.5333 198.588 38.185 196.534 38.185C194.408 38.185 191.804 38.57 188.724 39.34C188.064 39.5233 187.459 39.4133 186.909 39.01C186.359 38.57 186.084 38.0017 186.084 37.305C186.084 36.4617 186.341 35.71 186.854 35.05C187.368 34.3533 188.028 33.9317 188.834 33.785C191.621 33.1617 194.243 32.85 196.699 32.85C201.393 32.85 204.674 33.6933 206.544 35.38C208.414 37.0667 209.349 40.0183 209.349 44.235V58.865C209.349 59.7083 209.038 60.4417 208.414 61.065C207.828 61.6883 207.113 62 206.269 62H205.664C204.784 62 204.033 61.7067 203.409 61.12C202.786 60.4967 202.456 59.745 202.419 58.865V58.095C202.419 58.0583 202.401 58.04 202.364 58.04C202.291 58.04 202.254 58.0583 202.254 58.095C200.018 61.065 196.956 62.55 193.069 62.55Z" fill="#33691E"/>
<path d="M125.964 105C125.351 105 124.817 104.773 124.364 104.32C123.937 103.867 123.724 103.333 123.724 102.72V78.08C123.724 77.4667 123.937 76.9333 124.364 76.48C124.817 76.0267 125.351 75.8 125.964 75.8H139.164C139.777 75.8 140.311 76.0267 140.764 76.48C141.217 76.9333 141.444 77.4667 141.444 78.08C141.444 78.6933 141.217 79.2267 140.764 79.68C140.311 80.1067 139.777 80.32 139.164 80.32H129.644C129.431 80.32 129.324 80.44 129.324 80.68V87.68C129.324 87.8933 129.431 88 129.644 88H138.484C139.071 88 139.577 88.2133 140.004 88.64C140.431 89.04 140.644 89.5467 140.644 90.16C140.644 90.7733 140.431 91.2933 140.004 91.72C139.577 92.12 139.071 92.32 138.484 92.32H129.644C129.431 92.32 129.324 92.4267 129.324 92.64V102.72C129.324 103.333 129.097 103.867 128.644 104.32C128.191 104.773 127.657 105 127.044 105H125.964ZM154.551 95C150.737 95 148.831 96.1733 148.831 98.52C148.831 99.3733 149.071 100.067 149.551 100.6C150.057 101.133 150.697 101.4 151.471 101.4C152.991 101.4 154.217 100.933 155.151 100C156.084 99.04 156.551 97.7333 156.551 96.08V95.36C156.551 95.12 156.431 95 156.191 95H154.551ZM150.031 105.4C148.217 105.4 146.711 104.813 145.511 103.64C144.337 102.44 143.751 100.893 143.751 99C143.751 96.68 144.631 94.88 146.391 93.6C148.177 92.32 150.897 91.68 154.551 91.68H156.191C156.431 91.68 156.551 91.56 156.551 91.32V91C156.551 89.7733 156.257 88.92 155.671 88.44C155.084 87.9333 154.044 87.68 152.551 87.68C151.004 87.68 149.111 87.96 146.871 88.52C146.391 88.6533 145.951 88.5733 145.551 88.28C145.151 87.96 144.951 87.5467 144.951 87.04C144.951 86.4267 145.137 85.88 145.511 85.4C145.884 84.8933 146.364 84.5867 146.951 84.48C148.977 84.0267 150.884 83.8 152.671 83.8C156.084 83.8 158.471 84.4133 159.831 85.64C161.191 86.8667 161.871 89.0133 161.871 92.08V102.72C161.871 103.333 161.644 103.867 161.191 104.32C160.764 104.773 160.244 105 159.631 105H159.191C158.551 105 158.004 104.787 157.551 104.36C157.097 103.907 156.857 103.36 156.831 102.72V102.16C156.831 102.133 156.817 102.12 156.791 102.12C156.737 102.12 156.711 102.133 156.711 102.16C155.084 104.32 152.857 105.4 150.031 105.4ZM168.653 105C168.039 105 167.506 104.773 167.053 104.32C166.599 103.867 166.373 103.333 166.373 102.72V86.48C166.373 85.8667 166.599 85.3333 167.053 84.88C167.506 84.4267 168.039 84.2 168.653 84.2H169.453C170.066 84.2 170.599 84.4267 171.053 84.88C171.506 85.3333 171.733 85.8667 171.733 86.48V88.16C171.733 88.1867 171.746 88.2 171.773 88.2C171.826 88.2 171.853 88.1867 171.853 88.16C172.626 87.0933 173.639 86.2267 174.893 85.56C176.146 84.8667 177.519 84.44 179.013 84.28C179.573 84.2267 180.053 84.4133 180.453 84.84C180.853 85.24 181.053 85.72 181.053 86.28C181.053 86.84 180.853 87.32 180.453 87.72C180.053 88.12 179.573 88.3467 179.013 88.4C174.293 88.7733 171.933 91.1733 171.933 95.6V102.72C171.933 103.333 171.706 103.867 171.253 104.32C170.799 104.773 170.266 105 169.653 105H168.653ZM187.227 105C186.613 105 186.08 104.773 185.627 104.32C185.2 103.867 184.987 103.333 184.987 102.72V86.48C184.987 85.8667 185.2 85.3333 185.627 84.88C186.08 84.4267 186.613 84.2 187.227 84.2H187.787C188.4 84.2 188.92 84.4133 189.347 84.84C189.8 85.2667 190.04 85.7867 190.067 86.4V86.68C190.067 86.7067 190.08 86.72 190.107 86.72C190.16 86.72 190.187 86.7067 190.187 86.68C191.76 84.76 193.533 83.8 195.507 83.8C196.707 83.8 197.667 84.0267 198.387 84.48C199.133 84.9333 199.787 85.7333 200.347 86.88C200.347 86.9067 200.373 86.92 200.427 86.92C200.453 86.92 200.48 86.9067 200.507 86.88C202.187 84.8267 204.08 83.8 206.187 83.8C208.4 83.8 209.987 84.4 210.947 85.6C211.933 86.8 212.427 88.8667 212.427 91.8V102.72C212.427 103.333 212.2 103.867 211.747 104.32C211.32 104.773 210.8 105 210.187 105H209.507C208.893 105 208.36 104.773 207.907 104.32C207.453 103.867 207.227 103.333 207.227 102.72V92.6C207.227 90.6533 207.04 89.3733 206.667 88.76C206.293 88.1467 205.573 87.84 204.507 87.84C203.813 87.84 203.12 88.16 202.427 88.8C201.733 89.44 201.387 90.08 201.387 90.72V102.72C201.387 103.333 201.16 103.867 200.707 104.32C200.253 104.773 199.72 105 199.107 105H198.427C197.813 105 197.28 104.773 196.827 104.32C196.4 103.867 196.187 103.333 196.187 102.72V92.6C196.187 90.68 195.987 89.4133 195.587 88.8C195.213 88.16 194.493 87.84 193.427 87.84C192.733 87.84 192.04 88.16 191.347 88.8C190.653 89.44 190.307 90.08 190.307 90.72V102.72C190.307 103.333 190.08 103.867 189.627 104.32C189.173 104.773 188.64 105 188.027 105H187.227Z" fill="#33691E"/>
<path d="M121.067 120.15L115 116.215L116.968 114.903L118.607 114.247L121.067 113.919L126.478 114.411L129.594 115.723L133.857 118.019L137.137 119.33C138.066 119.44 139.99 119.593 140.252 119.33C140.514 119.068 140.361 118.347 140.252 118.019L139.596 117.199L137.464 115.723L135.497 113.591L135.169 112.443C135.169 112.334 135.234 112.017 135.497 111.624C135.759 111.23 136.262 110.694 136.481 110.476L138.12 109.82C138.339 109.765 139.137 109.754 140.58 110.148C142.023 110.541 142.602 110.968 142.712 111.132L149.763 118.019L153.206 120.806L155.994 122.118H157.797L158.125 121.462C158.125 121.353 157.994 120.937 157.469 120.15C156.945 119.363 155.939 118.62 155.502 118.347C155.392 118.237 155.042 117.855 154.518 117.199C153.993 116.543 154.299 115.832 154.518 115.559L155.01 114.411L155.994 113.263L157.469 112.607C157.688 112.553 158.256 112.476 158.781 112.607C159.306 112.739 160.421 113.755 160.913 114.247L162.716 116.871L165.012 119.658L166.816 120.806H170.095L173.703 118.674L177.966 114.575L180.754 112.607L183.781 112.771L184.525 113.427L185.017 113.919L185.181 115.395C185.017 115.832 184.492 117.068 183.705 118.511C183.18 119.298 184.58 118.948 185.345 118.674L186.493 118.019L188.296 117.035L189.772 115.395L192.232 112.279L194.691 109.656L196.167 109L197.643 109.164L198.627 110.476L198.463 112.771L196.823 114.739L195.019 116.707L193.544 118.674C193.653 119.002 194.134 119.658 195.183 119.658C196.233 119.658 197.042 119.221 197.315 119.002L205.514 115.395L208.793 114.575L214.04 114.739L214.696 115.395L214.04 116.215L209.777 118.674L205.022 121.298L202.89 122.282L196.495 125.069L190.92 127.037L186.001 128.513L180.59 129.497L175.834 130.317L164.52 130.481L155.666 130.317L150.09 129.661L146.155 129.005L143.368 128.349L136.973 126.545L133.857 125.397L130.414 124.25L125.986 122.61L121.067 120.15Z" fill="#33691E"/>
</svg>
